<?xml version="1.0" standalone="no"?>
<!DOCTYPE svg PUBLIC "-//W3C//DTD SVG 20010904//EN"
 "http://www.w3.org/TR/2001/REC-SVG-20010904/DTD/svg10.dtd">
<svg version="1.0" xmlns="http://www.w3.org/2000/svg"
 width="128.000000pt" height="128.000000pt" viewBox="0 0 128.000000 128.000000"
 preserveAspectRatio="xMidYMid meet">
<metadata>
Created by potrace 1.11, written by Peter Selinger 2001-2013
</metadata>
<g transform="translate(0.000000,128.000000) scale(0.100000,-0.100000)"
fill="#000000" stroke="none">
<path d="M500 1264 c-234 -50 -436 -254 -485 -489 -95 -454 306 -855 760 -760
238 50 440 252 490 490 95 456 -309 857 -765 759z m285 -403 c98 -119 137
-160 158 -165 20 -4 28 -11 25 -23 -3 -17 -26 -18 -328 -18 -287 0 -325 2
-328 16 -1 8 8 20 20 26 13 6 84 81 158 166 74 86 142 156 150 156 8 0 74 -71
145 -158z m172 -266 c2 -16 -12 -97 -30 -180 l-32 -150 -255 0 -255 0 -36 170
c-25 117 -33 174 -26 183 7 9 79 12 321 10 l311 -3 2 -30z"/>
<path d="M523 833 l-111 -128 115 -3 c63 -1 163 -1 222 0 l109 3 -105 125
c-57 69 -107 126 -112 128 -4 1 -57 -55 -118 -125z"/>
<path d="M394 576 c-5 -12 20 -155 43 -253 5 -23 36 -32 48 -14 5 10 -31 257
-41 272 -8 14 -44 10 -50 -5z"/>
<path d="M504 576 c-6 -14 11 -201 22 -254 3 -17 10 -22 27 -20 21 3 22 6 18
103 -5 147 -12 179 -39 183 -13 2 -25 -3 -28 -12z"/>
<path d="M615 578 c-3 -8 -4 -72 -3 -144 l3 -129 25 0 25 0 0 140 c0 138 0
140 -23 143 -12 2 -24 -3 -27 -10z"/>
<path d="M725 581 c-8 -14 -26 -262 -19 -272 11 -18 44 -9 48 14 11 51 28 239
22 252 -6 17 -42 20 -51 6z"/>
<path d="M836 581 c-10 -16 -47 -261 -41 -271 12 -19 43 -10 48 13 23 98 48
241 43 253 -6 15 -42 19 -50 5z"/>
</g>
</svg>
